<mxfile host="app.diagrams.net" modified="2024-03-29T08:39:51.269Z" agent="Mozilla/5.0 (Windows NT 10.0; Win64; x64) AppleWebKit/537.36 (KHTML, like Gecko) Chrome/122.0.0.0 Safari/537.36" etag="z7V54xYlKVykmj_PNUvs" version="24.0.6" type="device">
  <diagram name="Trang-1" id="Nkdi8AB0vbIH-OvDJyjw">
    <mxGraphModel dx="1034" dy="446" grid="1" gridSize="10" guides="1" tooltips="1" connect="1" arrows="1" fold="1" page="1" pageScale="1" pageWidth="827" pageHeight="1169" math="0" shadow="0">
      <root>
        <mxCell id="0" />
        <mxCell id="1" parent="0" />
        <mxCell id="1usC6PpegWLrxd76J9WX-29" value="UserHost" style="shape=umlActor;verticalLabelPosition=bottom;verticalAlign=top;html=1;outlineConnect=0;" vertex="1" parent="1">
          <mxGeometry x="60" y="165" width="30" height="60" as="geometry" />
        </mxCell>
        <mxCell id="1usC6PpegWLrxd76J9WX-30" value="Tạo GroupWallet" style="ellipse;whiteSpace=wrap;html=1;" vertex="1" parent="1">
          <mxGeometry x="190" y="160" width="140" height="70" as="geometry" />
        </mxCell>
        <mxCell id="1usC6PpegWLrxd76J9WX-31" value="" style="endArrow=none;html=1;rounded=0;" edge="1" parent="1" source="1usC6PpegWLrxd76J9WX-29" target="1usC6PpegWLrxd76J9WX-30">
          <mxGeometry width="50" height="50" relative="1" as="geometry">
            <mxPoint x="120" y="329" as="sourcePoint" />
            <mxPoint x="274" y="185" as="targetPoint" />
          </mxGeometry>
        </mxCell>
        <mxCell id="1usC6PpegWLrxd76J9WX-32" value="Quản lý GroupWallet" style="ellipse;whiteSpace=wrap;html=1;" vertex="1" parent="1">
          <mxGeometry x="190" y="260" width="140" height="70" as="geometry" />
        </mxCell>
        <mxCell id="1usC6PpegWLrxd76J9WX-33" value="" style="endArrow=none;html=1;rounded=0;" edge="1" parent="1" target="1usC6PpegWLrxd76J9WX-32" source="1usC6PpegWLrxd76J9WX-29">
          <mxGeometry width="50" height="50" relative="1" as="geometry">
            <mxPoint x="110" y="285" as="sourcePoint" />
            <mxPoint x="294" y="275" as="targetPoint" />
          </mxGeometry>
        </mxCell>
        <mxCell id="1usC6PpegWLrxd76J9WX-34" value="Thêm Guest/Host" style="ellipse;whiteSpace=wrap;html=1;" vertex="1" parent="1">
          <mxGeometry x="190" y="367.45000000000005" width="140" height="70" as="geometry" />
        </mxCell>
        <mxCell id="1usC6PpegWLrxd76J9WX-35" value="&amp;lt;&amp;lt;extend&amp;gt;&amp;gt;" style="html=1;verticalAlign=bottom;labelBackgroundColor=none;endArrow=open;endFill=0;dashed=1;rounded=0;" edge="1" parent="1" source="1usC6PpegWLrxd76J9WX-34" target="1usC6PpegWLrxd76J9WX-32">
          <mxGeometry x="-0.6021" y="-30" width="160" relative="1" as="geometry">
            <mxPoint x="519" y="300.45000000000005" as="sourcePoint" />
            <mxPoint x="196.61627451873915" y="280.00323531154174" as="targetPoint" />
            <mxPoint as="offset" />
          </mxGeometry>
        </mxCell>
        <mxCell id="1usC6PpegWLrxd76J9WX-36" value="Thêm giao dịch" style="ellipse;whiteSpace=wrap;html=1;" vertex="1" parent="1">
          <mxGeometry x="391.40999999999997" y="330.00000000000006" width="140" height="70" as="geometry" />
        </mxCell>
        <mxCell id="1usC6PpegWLrxd76J9WX-37" value="&amp;lt;&amp;lt;extend&amp;gt;&amp;gt;" style="html=1;verticalAlign=bottom;labelBackgroundColor=none;endArrow=open;endFill=0;dashed=1;rounded=0;" edge="1" parent="1" source="1usC6PpegWLrxd76J9WX-36" target="1usC6PpegWLrxd76J9WX-32">
          <mxGeometry x="-0.7185" y="-9" width="160" relative="1" as="geometry">
            <mxPoint x="720.41" y="263.00000000000006" as="sourcePoint" />
            <mxPoint x="295.99988128035613" y="313.54996290011127" as="targetPoint" />
            <mxPoint as="offset" />
          </mxGeometry>
        </mxCell>
        <mxCell id="1usC6PpegWLrxd76J9WX-38" value="Income" style="ellipse;whiteSpace=wrap;html=1;" vertex="1" parent="1">
          <mxGeometry x="344" y="431.16" width="140" height="70" as="geometry" />
        </mxCell>
        <mxCell id="1usC6PpegWLrxd76J9WX-39" value="" style="endArrow=block;html=1;rounded=0;align=center;verticalAlign=bottom;endFill=0;labelBackgroundColor=none;endSize=8;" edge="1" parent="1" source="1usC6PpegWLrxd76J9WX-38" target="1usC6PpegWLrxd76J9WX-36">
          <mxGeometry relative="1" as="geometry">
            <mxPoint x="728" y="548.16" as="sourcePoint" />
            <mxPoint x="373.2548178513507" y="390.00362006290715" as="targetPoint" />
          </mxGeometry>
        </mxCell>
        <mxCell id="1usC6PpegWLrxd76J9WX-40" value="" style="resizable=0;html=1;align=center;verticalAlign=top;labelBackgroundColor=none;" connectable="0" vertex="1" parent="1usC6PpegWLrxd76J9WX-39">
          <mxGeometry relative="1" as="geometry" />
        </mxCell>
        <mxCell id="1usC6PpegWLrxd76J9WX-41" value="Spend" style="ellipse;whiteSpace=wrap;html=1;" vertex="1" parent="1">
          <mxGeometry x="500" y="431.16" width="140" height="70" as="geometry" />
        </mxCell>
        <mxCell id="1usC6PpegWLrxd76J9WX-42" value="" style="endArrow=block;html=1;rounded=0;align=center;verticalAlign=bottom;endFill=0;labelBackgroundColor=none;endSize=8;" edge="1" parent="1" source="1usC6PpegWLrxd76J9WX-41" target="1usC6PpegWLrxd76J9WX-36">
          <mxGeometry relative="1" as="geometry">
            <mxPoint x="884" y="548.16" as="sourcePoint" />
            <mxPoint x="602" y="399" as="targetPoint" />
          </mxGeometry>
        </mxCell>
        <mxCell id="1usC6PpegWLrxd76J9WX-43" value="" style="resizable=0;html=1;align=center;verticalAlign=top;labelBackgroundColor=none;" connectable="0" vertex="1" parent="1usC6PpegWLrxd76J9WX-42">
          <mxGeometry relative="1" as="geometry" />
        </mxCell>
        <mxCell id="1usC6PpegWLrxd76J9WX-44" value="Biểu đồ và thống kê &lt;br&gt;giao dịch" style="ellipse;whiteSpace=wrap;html=1;" vertex="1" parent="1">
          <mxGeometry x="399.99999999999994" y="230.00000000000006" width="140" height="70" as="geometry" />
        </mxCell>
        <mxCell id="1usC6PpegWLrxd76J9WX-45" value="&amp;lt;&amp;lt;extend&amp;gt;&amp;gt;" style="html=1;verticalAlign=bottom;labelBackgroundColor=none;endArrow=open;endFill=0;dashed=1;rounded=0;" edge="1" parent="1" source="1usC6PpegWLrxd76J9WX-44" target="1usC6PpegWLrxd76J9WX-32">
          <mxGeometry x="-0.019" y="-7" width="160" relative="1" as="geometry">
            <mxPoint x="749" y="173.00000000000006" as="sourcePoint" />
            <mxPoint x="345.59" y="225" as="targetPoint" />
            <mxPoint as="offset" />
          </mxGeometry>
        </mxCell>
        <mxCell id="1usC6PpegWLrxd76J9WX-46" value="GroupWallet Notification" style="ellipse;whiteSpace=wrap;html=1;" vertex="1" parent="1">
          <mxGeometry x="399.99999999999994" y="150.00000000000006" width="140" height="70" as="geometry" />
        </mxCell>
        <mxCell id="1usC6PpegWLrxd76J9WX-47" value="&amp;lt;&amp;lt;extend&amp;gt;&amp;gt;" style="html=1;verticalAlign=bottom;labelBackgroundColor=none;endArrow=open;endFill=0;dashed=1;rounded=0;" edge="1" parent="1" source="1usC6PpegWLrxd76J9WX-46" target="1usC6PpegWLrxd76J9WX-32">
          <mxGeometry x="-0.019" y="-7" width="160" relative="1" as="geometry">
            <mxPoint x="749" y="93.00000000000006" as="sourcePoint" />
            <mxPoint x="327" y="205" as="targetPoint" />
            <mxPoint as="offset" />
          </mxGeometry>
        </mxCell>
        <mxCell id="1usC6PpegWLrxd76J9WX-48" value="Cập nhật" style="ellipse;whiteSpace=wrap;html=1;" vertex="1" parent="1">
          <mxGeometry x="600" y="297.45" width="140" height="70" as="geometry" />
        </mxCell>
        <mxCell id="1usC6PpegWLrxd76J9WX-49" value="&amp;lt;&amp;lt;include&amp;gt;&amp;gt;" style="html=1;verticalAlign=bottom;labelBackgroundColor=none;endArrow=open;endFill=0;dashed=1;rounded=0;" edge="1" parent="1" source="1usC6PpegWLrxd76J9WX-36" target="1usC6PpegWLrxd76J9WX-48">
          <mxGeometry x="-0.2104" y="12" width="160" relative="1" as="geometry">
            <mxPoint x="660" y="380" as="sourcePoint" />
            <mxPoint x="510" y="500" as="targetPoint" />
            <mxPoint as="offset" />
            <Array as="points" />
          </mxGeometry>
        </mxCell>
        <mxCell id="1usC6PpegWLrxd76J9WX-53" value="" style="endArrow=none;html=1;rounded=0;" edge="1" parent="1" source="1usC6PpegWLrxd76J9WX-46" target="1usC6PpegWLrxd76J9WX-48">
          <mxGeometry width="50" height="50" relative="1" as="geometry">
            <mxPoint x="100" y="213" as="sourcePoint" />
            <mxPoint x="222" y="279" as="targetPoint" />
          </mxGeometry>
        </mxCell>
        <mxCell id="1usC6PpegWLrxd76J9WX-54" value="" style="endArrow=none;html=1;rounded=0;" edge="1" parent="1" source="1usC6PpegWLrxd76J9WX-44" target="1usC6PpegWLrxd76J9WX-48">
          <mxGeometry width="50" height="50" relative="1" as="geometry">
            <mxPoint x="529" y="220" as="sourcePoint" />
            <mxPoint x="631" y="270" as="targetPoint" />
          </mxGeometry>
        </mxCell>
        <mxCell id="1usC6PpegWLrxd76J9WX-55" value="UserGuest" style="shape=umlActor;verticalLabelPosition=bottom;verticalAlign=top;html=1;outlineConnect=0;" vertex="1" parent="1">
          <mxGeometry x="720" y="155" width="30" height="60" as="geometry" />
        </mxCell>
        <mxCell id="1usC6PpegWLrxd76J9WX-56" value="" style="endArrow=none;html=1;rounded=0;" edge="1" parent="1" source="1usC6PpegWLrxd76J9WX-55" target="1usC6PpegWLrxd76J9WX-44">
          <mxGeometry width="50" height="50" relative="1" as="geometry">
            <mxPoint x="750" y="254" as="sourcePoint" />
            <mxPoint x="820" y="120" as="targetPoint" />
          </mxGeometry>
        </mxCell>
        <mxCell id="1usC6PpegWLrxd76J9WX-57" value="" style="endArrow=none;html=1;rounded=0;" edge="1" parent="1" source="1usC6PpegWLrxd76J9WX-55" target="1usC6PpegWLrxd76J9WX-46">
          <mxGeometry width="50" height="50" relative="1" as="geometry">
            <mxPoint x="740" y="210" as="sourcePoint" />
            <mxPoint x="842" y="194" as="targetPoint" />
          </mxGeometry>
        </mxCell>
      </root>
    </mxGraphModel>
  </diagram>
</mxfile>
